<svg width="66.78" height="99.611" viewBox="0 0 66.78 99.611" xmlns="http://www.w3.org/2000/svg"><g id="svgGroup" stroke-linecap="round" fill-rule="evenodd" font-size="9pt" stroke="#000" stroke-width="0.25mm" fill="#000" style="stroke:#000;stroke-width:0.25mm;fill:#000"><path d="M 1.74 59.522 L 3.791 61.719 A 76.91 76.91 0 0 0 4.357 71.398 Q 5.803 82.76 10.944 88.99 A 22.155 22.155 0 0 0 21.287 95.877 Q 24.951 97.101 29.431 97.483 A 49.929 49.929 0 0 0 33.674 97.657 A 49.369 49.369 0 0 0 42.646 96.892 Q 47.772 95.943 51.814 93.819 A 25.256 25.256 0 0 0 56.623 90.552 Q 64.826 83.448 64.826 70.557 A 21.135 21.135 0 0 0 64.259 65.521 A 14.671 14.671 0 0 0 60.432 58.545 Q 56.037 54.102 47.883 54.102 A 208.242 208.242 0 0 0 43.172 54.152 Q 38.073 54.268 34.398 54.649 A 55.53 55.53 0 0 0 32.282 54.908 A 33.622 33.622 0 0 0 29.522 55.411 Q 26.033 56.213 24.348 57.593 A 6.121 6.121 0 0 0 22.075 62.079 A 8.528 8.528 0 0 0 22.053 62.696 Q 22.053 66.016 24.812 67.603 Q 27.57 69.19 34.113 69.288 A 80.726 80.726 0 0 1 37.166 69.399 Q 40.084 69.564 42.106 69.941 A 21.803 21.803 0 0 1 42.39 69.996 Q 45.441 70.606 47.59 72.29 A 16.269 16.269 0 0 1 49.218 73.773 Q 50.01 74.59 50.833 75.618 A 37.689 37.689 0 0 1 52.131 77.344 L 50.52 78.418 A 37.218 37.218 0 0 0 49.147 76.646 Q 47.671 74.862 46.345 73.804 A 9.934 9.934 0 0 0 43.003 72.075 A 12.385 12.385 0 0 0 41.682 71.753 A 23.893 23.893 0 0 0 39.772 71.483 Q 37.452 71.241 34.162 71.241 A 38.674 38.674 0 0 1 30.4 71.071 Q 25.975 70.637 23.518 69.092 A 7.17 7.17 0 0 1 21.05 66.592 Q 20.1 64.936 20.1 62.696 A 10.372 10.372 0 0 1 20.349 60.362 A 7.589 7.589 0 0 1 21.516 57.691 A 7.406 7.406 0 0 1 23.235 55.968 Q 24.057 55.366 25.117 54.871 A 15.275 15.275 0 0 1 26.13 54.444 Q 28.279 53.624 31.386 53.112 A 52.77 52.77 0 0 1 34.65 52.686 A 92.987 92.987 0 0 1 38.999 52.359 Q 42.921 52.149 47.834 52.149 Q 53.84 52.149 58.088 54.419 A 15.424 15.424 0 0 1 64.558 60.816 A 18.245 18.245 0 0 1 66.454 66.476 A 24.539 24.539 0 0 1 66.779 70.557 A 35.547 35.547 0 0 1 66.027 78.047 A 26.456 26.456 0 0 1 62.849 86.206 A 25.024 25.024 0 0 1 52.655 95.611 A 30.515 30.515 0 0 1 51.521 96.167 A 34.969 34.969 0 0 1 43.36 98.749 Q 38.898 99.61 33.674 99.61 Q 22.42 99.61 15.281 95.226 A 22.594 22.594 0 0 1 9.382 90.015 A 29 29 0 0 1 4.876 81.659 Q 1.74 72.91 1.74 59.522 Z M 65.705 9.864 L 65.705 66.456 L 63.752 63.038 L 63.752 10.01 A 14.238 14.238 0 0 0 63.585 7.751 Q 63.397 6.586 62.999 5.65 A 6.275 6.275 0 0 0 61.994 4.004 Q 60.236 1.954 56.867 1.954 A 8.355 8.355 0 0 0 54.815 2.191 A 5.543 5.543 0 0 0 51.813 4.053 A 6.759 6.759 0 0 0 50.629 6.264 Q 50.08 7.926 50.08 10.206 L 50.08 42.383 L 48.127 35.352 L 48.127 9.913 A 14.951 14.951 0 0 1 48.398 6.975 Q 48.747 5.232 49.548 3.877 A 8.155 8.155 0 0 1 50.446 2.637 A 7.591 7.591 0 0 1 55.042 0.145 A 11.025 11.025 0 0 1 56.867 0 Q 61.018 0 63.361 2.613 A 8.657 8.657 0 0 1 65.224 6.076 Q 65.6 7.393 65.682 8.964 A 17.212 17.212 0 0 1 65.705 9.864 Z M 0.666 58.204 L 0.031 49.317 Q -0.108 47.249 0.382 45.563 A 7.939 7.939 0 0 1 2.229 42.31 A 8.257 8.257 0 0 1 7.222 39.767 A 11.714 11.714 0 0 1 8.918 39.649 Q 10.969 39.649 12.775 40.284 A 9.354 9.354 0 0 1 14.169 40.897 Q 15.035 41.372 15.656 41.993 A 13.936 13.936 0 0 1 16.145 39.339 Q 16.598 37.797 17.413 36.636 A 7.508 7.508 0 0 1 18.366 35.523 Q 20.686 33.301 24.445 33.301 A 11.084 11.084 0 0 1 27.147 33.62 A 9.427 9.427 0 0 1 28.864 34.229 A 8.275 8.275 0 0 1 32.111 36.914 Q 33.013 33.848 34.915 32.156 A 7.61 7.61 0 0 1 35.236 31.885 A 7.826 7.826 0 0 1 39.34 30.236 A 10.211 10.211 0 0 1 40.461 30.176 A 10.761 10.761 0 0 1 43.579 30.607 A 8.434 8.434 0 0 1 47.248 32.837 Q 49.836 35.498 50.031 40.137 L 50.666 52.784 L 48.957 53.077 L 48.322 39.844 A 8.917 8.917 0 0 0 47.752 36.992 A 7.62 7.62 0 0 0 45.979 34.302 Q 43.781 32.129 40.461 32.129 Q 37.043 32.129 35.187 34.766 A 8.247 8.247 0 0 0 33.921 37.668 Q 33.494 39.49 33.674 41.797 L 34.699 53.711 L 32.746 54.004 L 31.721 41.651 A 7.942 7.942 0 0 0 31.244 39.46 A 6.14 6.14 0 0 0 29.499 36.963 A 6.913 6.913 0 0 0 26.089 35.39 A 9.597 9.597 0 0 0 24.445 35.254 A 8.497 8.497 0 0 0 22.295 35.51 A 5.602 5.602 0 0 0 19.025 37.745 Q 17.268 40.235 17.658 44.776 L 18.684 56.592 Q 18.858 58.337 19.344 59.283 A 3.203 3.203 0 0 0 19.465 59.498 A 3.657 3.657 0 0 0 20.61 60.652 A 4.783 4.783 0 0 0 21.223 60.987 L 20.832 63.477 A 5.664 5.664 0 0 1 18.098 61.377 Q 16.951 63.589 15.392 64.77 A 6.876 6.876 0 0 1 14.777 65.186 A 7.744 7.744 0 0 1 12.568 66.065 Q 11.335 66.358 9.846 66.358 A 12.436 12.436 0 0 1 7.513 66.149 A 9.483 9.483 0 0 1 5.207 65.406 Q 3.205 64.454 2.033 62.623 A 8.475 8.475 0 0 1 0.952 60.047 A 11.341 11.341 0 0 1 0.666 58.204 Z M 17.023 58.399 L 15.803 45.948 A 4.583 4.583 0 0 0 13.906 43.04 A 6.271 6.271 0 0 0 13.508 42.774 A 7.741 7.741 0 0 0 10.822 41.767 A 10.535 10.535 0 0 0 8.918 41.602 Q 6.03 41.602 4.279 43.003 A 5.639 5.639 0 0 0 3.571 43.677 A 6.292 6.292 0 0 0 2.147 46.58 Q 1.891 47.773 1.978 49.212 A 12.839 12.839 0 0 0 1.984 49.317 L 2.619 57.959 Q 2.814 60.352 4.499 62.378 A 5.217 5.217 0 0 0 6.922 63.985 Q 7.786 64.274 8.844 64.364 A 11.8 11.8 0 0 0 9.846 64.405 A 9.818 9.818 0 0 0 11.838 64.214 Q 13.099 63.953 14.066 63.333 A 5.64 5.64 0 0 0 14.777 62.793 A 6.7 6.7 0 0 0 16.69 59.804 A 9.114 9.114 0 0 0 17.023 58.399 Z M 39.729 84.571 L 37.824 84.278 A 18.773 18.773 0 0 1 40.363 77.1 A 13.162 13.162 0 0 1 45.619 72.205 A 15.843 15.843 0 0 1 46.076 71.973 L 47.199 73.34 A 11.807 11.807 0 0 0 42.121 78.003 A 18.077 18.077 0 0 0 39.729 84.571 Z" vector-effect="non-scaling-stroke"/></g></svg>